Coordinates
version=1
nRows=19
nColumns=34
inDegrees=yes

Units are S.I. units (second, meters, Newtons, ...)
If the header above contains a line with 'inDegrees', this indicates whether rotational values are in degrees (yes) or radians (no).

endheader
time	pelvis_tilt	pelvis_list	pelvis_rotation	pelvis_tx	pelvis_ty	pelvis_tz	hip_flexion_r	hip_adduction_r	hip_rotation_r	knee_angle_r	ankle_angle_r	subtalar_angle_r	mtp_angle_r	hip_flexion_l	hip_adduction_l	hip_rotation_l	knee_angle_l	ankle_angle_l	subtalar_angle_l	mtp_angle_l	lumbar_extension	lumbar_bending	lumbar_rotation	arm_flex_r	arm_add_r	arm_rot_r	elbow_flex_r	pro_sup_r	arm_flex_l	arm_add_l	arm_rot_l	elbow_flex_l	pro_sup_l
     19.50000000	    -17.05987034	    -12.30564925	   -103.86103268	      6.16791494	      0.99706266	      5.04270701	    -17.93977044	     -0.95500427	    -29.52586146	     16.59481708	     29.49812443	     35.00000000	      0.00000000	    -12.46166032	     10.00747744	     18.12262918	      9.91972776	      8.80976476	    -26.83739207	      0.00000000	     -5.70698505	     14.82086297	      3.85521263	     17.09269186	     -5.74496834	     16.04312202	     16.22467150	    119.74817918	     21.63162325	    -12.84388449	     13.48314914	     30.94806031	    119.74817918
     19.51666670	    -17.63896458	    -12.44672466	   -103.42314672	      6.17038639	      0.99675143	      5.04425182	    -17.96759365	     -0.06722693	    -28.70389008	     17.48390680	     32.05659600	     35.00000000	      0.00000000	    -12.21557055	      9.61592697	     18.20045699	     11.21903237	      9.57272588	    -26.66278534	      0.00000000	     -6.06365336	     15.32634163	      3.64209791	     17.20760404	     -5.62016372	     16.17620138	     15.75027744	    119.74817918	     21.88323513	    -13.00414227	     13.52617573	     30.75208582	    119.74817918
     19.53333330	    -17.35426254	    -12.37652683	   -101.72058270	      6.17506101	      0.99480534	      5.04596108	    -17.05864862	     -0.27212562	    -30.17874981	     19.95795967	     33.76964024	     35.00000000	      0.00000000	    -11.27384145	      9.86566709	     18.27294247	     13.02177007	     11.09516308	    -24.56516415	      0.00000000	     -5.62985759	     15.02825612	      2.28111625	     17.34515733	     -5.22788586	     15.77324692	     14.95871851	    119.74817918	     22.00005872	    -13.28436969	     13.28322231	     31.02275608	    119.74817918
     19.55000000	    -17.39736567	    -12.60703575	   -100.73646239	      6.17973468	      0.99427738	      5.04661155	    -16.51548844	     -0.19347053	    -29.61720613	     21.73310721	     33.35361948	     35.00000000	      0.00000000	    -11.61096535	      9.82121045	     18.91145265	     12.92713204	     11.28047713	    -23.94159485	      0.00000000	     -6.02469144	     15.00526501	      1.76595174	     17.53959476	     -5.36157224	     15.60551212	     15.02251049	    119.73033723	     22.48787974	    -13.04712324	     13.13610506	     31.18462259	    119.74817918
     19.56666670	    -16.57486613	    -12.66506426	    -98.72661873	      6.18649352	      0.99253792	      5.04600474	    -15.79557793	     -0.99814609	    -31.44587521	     23.39808490	     33.12210301	     35.00000000	      0.00000000	    -10.97825663	     10.43972286	     18.58598507	     13.91543335	     14.14872615	    -19.18615162	      0.00000000	     -6.17732582	     14.14120759	      0.25474259	     17.87383677	     -4.97739231	     13.67052593	     15.13305720	    119.74817918	     23.33975182	    -12.66254756	     12.41273065	     30.94296091	    119.74817918
     19.58333330	    -17.26645791	    -12.73197752	    -98.54139225	      6.19229146	      0.99346377	      5.04672457	    -15.48739702	     -0.53464160	    -31.61093486	     24.29390326	     33.47596689	     35.00000000	      0.00000000	    -11.30781825	      9.88397391	     18.74849009	     13.59767126	     13.92349851	    -18.59804391	      0.00000000	     -6.63667468	     15.22200793	     -0.56085834	     18.37283011	     -5.02322726	     13.81991237	     15.49232540	    119.74817918	     23.31068403	    -12.35496105	     12.80554894	     31.05813067	    119.74817918
     19.60000000	    -17.20037331	    -12.59570535	    -97.58888175	      6.19754750	      0.99270268	      5.04645286	    -15.01339632	     -0.11026840	    -31.29037335	     24.45681251	     32.06142696	     34.55736172	      0.00000000	    -11.05130252	      9.84301493	     18.82107546	     13.67407674	     13.40583038	    -17.17934165	      0.00000000	     -6.69417388	     15.30683337	     -1.96518709	     18.87351267	     -4.57423670	     13.94950495	     15.74627047	    119.74817918	     23.47205364	    -12.61505709	     13.43420212	     31.36736050	    119.74817918
     19.61666670	    -17.10034963	    -12.34908657	    -97.25148541	      6.20142638	      0.99179239	      5.04561371	    -14.33701318	      0.01023017	    -30.61354194	     24.71600139	     31.29220715	     35.00000000	      0.00000000	    -10.94660638	      9.84847586	     19.26535217	     13.15393101	     13.23918228	    -16.55385246	      0.00000000	     -6.99285437	     15.24258052	     -2.39152455	     19.36755889	     -4.25589681	     13.98257626	     16.04630669	    119.74817918	     23.91918165	    -12.55914753	     13.50558442	     31.44654753	    119.74817918
     19.63333330	    -17.07026573	    -11.75285679	    -96.92782335	      6.20532772	      0.99080597	      5.04474298	    -13.32403366	      0.33820633	    -29.40990788	     24.74157073	     29.97563521	     34.62989964	      0.00000000	    -10.82890541	      9.65496655	     20.49059866	     11.93215741	     12.89422282	    -14.95136469	      0.00000000	     -6.76879546	     15.40568936	     -2.95355132	     19.87711035	     -4.00780549	     14.29689444	     16.30492044	    119.74817918	     24.20164595	    -12.37707923	     13.63965011	     31.01429308	    119.74817918
     19.65000000	    -17.04297291	    -11.76309232	    -96.89672786	      6.20737527	      0.99062411	      5.04454749	    -13.28330524	      0.74629777	    -27.62674942	     24.20561717	     29.20963768	     34.05718391	      0.00000000	    -11.40730326	      9.38838470	     20.83716292	     10.71602637	     12.98213146	    -12.80425645	      0.00000000	     -7.10305666	     15.30285130	     -2.85999331	     20.34153840	     -4.07653373	     16.60003729	     16.43476651	    119.74817918	     24.81142640	    -11.99077624	     13.39809123	     30.24154533	    119.74817918
     19.66666670	    -16.48819303	    -11.48587116	    -96.69199795	      6.21027881	      0.98981487	      5.04502308	    -12.77384887	      0.16878672	    -27.11727803	     24.24192020	     27.89489547	     34.09811272	      0.00000000	    -11.84773132	      9.62497694	     22.04428461	      9.11596095	     12.56997746	    -11.10321034	      0.00000000	     -6.76555171	     14.83837608	     -3.14440638	     20.61801976	     -3.96307007	     17.00750779	     16.65654660	    119.74817918	     25.01442616	    -11.76241935	     13.43599201	     29.79035745	    119.74817918
     19.68333330	    -16.27312050	    -11.33800269	    -96.52181198	      6.21392100	      0.98893068	      5.04644257	    -12.68023902	     -0.10855455	    -26.86815987	     24.10096444	     27.85245654	     34.04165601	      0.00000000	    -12.58705997	      9.52095047	     23.44965161	      7.35016461	     12.04844005	     -9.25423754	      0.00000000	     -6.41306239	     14.75750298	     -3.61076832	     20.80544597	     -4.05632829	     17.36019927	     16.93586660	    119.74817918	     25.12727418	    -11.57810198	     13.61034584	     29.55788696	    119.74817918
     19.70000000	    -16.30267371	    -11.12555706	    -96.35464006	      6.21810709	      0.98794220	      5.04870659	    -12.62204780	     -0.13635219	    -26.60539570	     23.87728544	     27.56294757	     33.77967278	      0.00000000	    -13.42437006	      9.09236833	     25.32091001	      5.36571920	     11.18784701	     -7.36859446	      0.00000000	     -5.83407948	     15.07435736	     -4.33072691	     20.90044484	     -4.23653518	     17.56831009	     17.56615884	    119.74817918	     24.91648042	    -11.52945559	     13.91638256	     29.68848078	    119.74817918
     19.71666670	    -17.15067842	    -11.64236923	    -96.33383434	      6.22122375	      0.98878409	      5.05233475	    -14.19355490	      1.59032578	    -23.87966690	     21.68846536	     26.39195159	     30.88973096	      0.00000000	    -16.51430198	      7.28156838	     31.54957392	      0.63996637	      6.03083883	    -12.19486137	      0.00000000	     -5.92380840	     16.02602923	     -4.84748829	     21.06265013	     -4.60247891	     18.63483378	     17.74607458	    119.74817918	     24.84119965	    -11.47561561	     14.84880443	     29.61256020	    119.74817918
     19.73333330	    -17.21053323	    -10.96110564	    -95.58652978	      6.22604693	      0.98684318	      5.05451120	    -13.78803211	      1.92330476	    -23.78197254	     21.11167792	     25.99979900	     30.02031478	      0.00000000	    -16.06598317	      6.83501147	     32.57911580	      0.00000000	      4.32691594	    -11.29636524	      0.00000000	     -4.69133186	     16.38664585	     -6.05665518	     20.80835970	     -5.05095273	     18.41777120	     18.97983130	    119.74817918	     24.41977567	    -11.53563992	     15.20618782	     30.35322108	    119.74817918
     19.75000000	    -17.59640736	    -10.26275197	    -95.05495234	      6.23167096	      0.98506806	      5.05575406	    -13.29469883	      2.38062980	    -23.79674999	     20.60329120	     25.49786417	     29.56058946	      0.00000000	    -15.26730657	      6.25656141	     32.40903423	      0.00000000	      3.43192079	    -10.39622905	      0.00000000	     -3.74878300	     17.12796030	     -7.31276367	     21.03569421	     -5.36502596	     18.06685451	     19.43594718	    119.74817918	     24.22642971	    -11.61924646	     15.97093609	     30.75308088	    119.74817918
     19.76666670	    -17.47975539	     -9.42942048	    -94.79421517	      6.23829659	      0.98411007	      5.05718982	    -12.66215020	      2.28014574	    -23.07839206	     19.86817496	     25.08400649	     28.35624152	      0.00000000	    -14.30885658	      6.19947263	     33.42986170	      0.00000000	      5.06694226	     -9.71793935	      0.00000000	     -2.87766405	     17.43262977	     -8.31795710	     21.26067913	     -5.69687243	     17.40882835	     19.89149044	    119.74817918	     24.08256339	    -11.84860597	     17.42890481	     30.92172569	    119.74817918
     19.78333330	    -17.26944829	     -9.28364123	    -94.71162908	      6.24553525	      0.98383369	      5.05779616	    -12.70546595	      1.73110126	    -23.03889676	     19.34566550	     25.04483817	     28.22881106	      0.00000000	    -13.92285260	      6.34988510	     33.04475945	      0.00000000	      5.37440473	    -10.00606121	      0.00000000	     -2.97135883	     17.66082665	     -8.82345699	     21.80523827	     -6.20681878	     17.24466390	     20.03649769	    119.73636507	     24.27661495	    -11.56394506	     17.63905920	     31.10553699	    119.74817918
     19.80000000	    -17.56251268	     -8.87897171	    -94.29329451	      6.25236192	      0.98286642	      5.05869558	    -12.57391017	      2.40401175	    -20.69326934	     18.35622840	     24.22581281	     24.74859869	      0.00000000	    -13.26192775	      5.84062956	     32.65755338	      0.00000000	      6.16966491	     -7.47419040	      0.00000000	     -2.50408457	     18.43191881	     -9.31604696	     21.69305652	     -6.84283068	     15.15077255	     20.64291920	    119.74817918	     24.94167261	    -11.41995594	     20.68605749	     31.31889151	    119.74817918
